# xmcd CD database file generated by OrangeCD 5.2
#
# Track frame offsets:
#	150
#	11338
#	30498
#	48722
#	69183
#	80195
#	97590
#	116296
#	135068
#	156560
#	170323
#	189944
#	203805
#	218937
#	237308
#	239451
#
# Disc length: 3468 seconds
#
# Revision: 1
# Processed by: cddbd v1.5.1PL0 Copyright (c) Steve Scherf et al.
# Submitted via: OrangeCD 5.2
#
DISCID=c70d8a10
DTITLE=Champion Jack Dupree - Champion Jack Dupree of New Orleans
DYEAR=1900
DGENRE=
TTITLE0=Shake Baby Shake
TTITLE1=Everyday I Had the Blues
TTITLE2=Three O'Clock in the Morning
TTITLE3=Oh Lawdy
TTITLE4=Whiskey Head Woman 
TTITLE5=Young Girl Blues 
TTITLE6=Fine and Mellow 
TTITLE7=Holiday Blues 
TTITLE8=People Talk 
TTITLE9=Shirley May 
TTITLE10=Federal Man Blues
TTITLE11=Champion Jack's Guitar Blues 
TTITLE12=Sporting Life Blues 
TTITLE13=Don't Ever Believe
TTITLE14=Christina Christina Blues 
TTITLE15=Hand in Hand 
EXTD=STORYVILLE RECORDS STCD 8015\n\nChampion Jack Dupree: vocals, piano and gu
EXTD=itar (on track 12) - Chris ("Stuff") Lange: guitar on track 8 - Mogens Seide
EXTD=lin: bass on tracks 2, 4, 6, 7, 11, 14-16. Recorded in Copenhagen between 
EXTD=Dezember 13, 1960 and June 18, 1962.
EXTT0=
EXTT1=
EXTT2=
EXTT3=
EXTT4=
EXTT5=
EXTT6=
EXTT7=
EXTT8=
EXTT9=
EXTT10=
EXTT11=
EXTT12=
EXTT13=
EXTT14=
EXTT15=
PLAYORDER=
